<?xml version="1.0" encoding="UTF-8"?>
<svg width="20px" height="20px" viewBox="0 0 20 20" version="1.1" xmlns="http://www.w3.org/2000/svg" xmlns:xlink="http://www.w3.org/1999/xlink">
    <title>关闭备份</title>
    <defs>
        <filter id="filter-1">
            <feColorMatrix in="SourceGraphic" type="matrix" values="0 0 0 0 0.400000 0 0 0 0 0.400000 0 0 0 0 0.400000 0 0 0 1.000000 0"></feColorMatrix>
        </filter>
    </defs>
    <g id="页面-1" stroke="none" stroke-width="1" fill="none" fill-rule="evenodd">
        <g id="gis地图/查看项目弹窗" transform="translate(-1400.000000, -74.000000)">
            <g id="关闭备份" transform="translate(1087.000000, 64.000000)" filter="url(#filter-1)">
                <g transform="translate(313.000000, 10.000000)">
                    <rect id="矩形" fill="#000000" fill-rule="nonzero" opacity="0" x="0" y="0" width="20" height="20"></rect>
                    <path d="M15.1005579,4.02263581 C14.8618602,4.02263581 14.6329474,4.11740864 14.4642168,4.28608918 L10.0110286,8.73510279 L5.55784033,4.28608918 C5.33356687,4.04562893 4.99580234,3.94664691 4.67705199,4.02797385 C4.35830164,4.10930079 4.10940335,4.35796575 4.0280001,4.67641729 C3.94659685,4.99486883 4.04567174,5.33231672 4.28635762,5.55637994 L8.73954585,10.0053935 L4.28635762,14.4544072 C4.05238773,14.6799609 3.9584396,15.014089 4.040622,15.3283699 C4.12280441,15.6426509 4.36832798,15.8881757 4.68282619,15.9705773 C4.9973244,16.052979 5.33185444,15.9594341 5.55784033,15.7258963 L10.0110286,11.2768827 L14.4642168,15.7258963 C14.6399453,15.9014601 14.8702516,15.9889423 15.0999581,15.9889424 C15.4636893,15.9888649 15.7915867,15.7699742 15.9308493,15.4342738 C16.0701119,15.0985735 15.993336,14.7121219 15.7362993,14.4550064 L11.2837108,10.0059927 L15.736899,5.55637994 C16.0877003,5.20547104 16.0877003,4.63699807 15.736899,4.28608918 C15.5681684,4.11740864 15.3392556,4.02263581 15.1005579,4.02263581 Z" id="路径" fill-opacity="0.39704863" fill="#000000" fill-rule="nonzero"></path>
                </g>
            </g>
        </g>
    </g>
</svg>