<?xml version="1.0" encoding="UTF-8"?>
<svg width="16px" height="16px" viewBox="0 0 16 16" version="1.1" xmlns="http://www.w3.org/2000/svg" xmlns:xlink="http://www.w3.org/1999/xlink">
    <title>地图尺子,测量,测距,距离</title>
    <g id="页面-1" stroke="none" stroke-width="1" fill="none" fill-rule="evenodd">
        <g id="gis地图/查看项目弹窗" transform="translate(-326.000000, -212.000000)" fill-rule="nonzero">
            <g id="编组-22" transform="translate(318.000000, 104.000000)">
                <g id="地图尺子,测量,测距,距离" transform="translate(8.000000, 108.000000)">
                    <rect id="矩形" fill="#000000" opacity="0" x="0" y="0" width="16" height="16"></rect>
                    <path d="M4.60625,0.35625 L0.3625,4.5984375 C0.1671875,4.79375 0.1671875,5.1109375 0.3625,5.30625 L10.615625,15.559375 C10.8109375,15.7546875 11.128125,15.7546875 11.3234375,15.559375 L15.565625,11.3171875 C15.7609375,11.121875 15.7609375,10.8046875 15.565625,10.609375 L5.3125,0.35625 C5.1171875,0.1609375 4.8,0.1609375 4.60625,0.35625 Z M1.5125,4.8640625 L4.871875,1.5046875 C4.9203125,1.45625 5,1.45625 5.0484375,1.5046875 L5.578125,2.034375 C5.6265625,2.0828125 5.6265625,2.1625 5.578125,2.2109375 L4.075,3.7140625 L4.7828125,4.421875 L6.2859375,2.91875 C6.334375,2.8703125 6.4140625,2.8703125 6.4625,2.91875 L6.8125,3.26875 C6.8609375,3.3171875 6.8609375,3.396875 6.8125,3.4453125 L5.840625,4.4171875 L6.546875,5.125 L7.51875,4.153125 C7.5671875,4.1046875 7.646875,4.1046875 7.6953125,4.153125 L8.0453125,4.503125 C8.09375,4.5515625 8.09375,4.63125 8.0453125,4.6796875 L7.0734375,5.6515625 L7.78125,6.359375 L8.753125,5.3875 C8.8015625,5.3390625 8.88125,5.3390625 8.9296875,5.3875 L9.290625,5.7484375 C9.3390625,5.796875 9.3390625,5.8765625 9.290625,5.925 L7.7875,7.428125 L8.4953125,8.1359375 L9.9984375,6.6328125 C10.046875,6.584375 10.1265625,6.584375 10.175,6.6328125 L10.525,6.9828125 C10.5734375,7.03125 10.5734375,7.1109375 10.525,7.159375 L9.553125,8.13125 L10.2609375,8.8390625 L11.2328125,7.8671875 C11.28125,7.81875 11.3609375,7.81875 11.409375,7.8671875 L11.759375,8.2171875 C11.8078125,8.265625 11.8078125,8.3453125 11.759375,8.39375 L10.7875,9.365625 L11.4953125,10.0734375 L12.4671875,9.1015625 C12.515625,9.053125 12.5953125,9.053125 12.64375,9.1015625 L13.0046875,9.4625 C13.053125,9.5109375 13.053125,9.590625 13.0046875,9.6390625 L11.5,11.1390625 L12.2078125,11.846875 L13.7109375,10.34375 C13.759375,10.2953125 13.8390625,10.2953125 13.8875,10.34375 L14.4171875,10.8734375 C14.465625,10.921875 14.465625,11.0015625 14.4171875,11.05 L11.0578125,14.409375 C11.009375,14.4578125 10.9296875,14.4578125 10.88125,14.409375 L1.5125,5.040625 C1.48853408,5.0175084 1.47499642,4.98564154 1.47499642,4.95234375 C1.47499642,4.91904596 1.48853408,4.8871791 1.5125,4.8640625 Z" id="形状" fill="#FFFFFF"></path>
                </g>
            </g>
        </g>
    </g>
</svg>