<?xml version="1.0" encoding="UTF-8"?>
<svg width="20px" height="20px" viewBox="0 0 20 20" version="1.1" xmlns="http://www.w3.org/2000/svg" xmlns:xlink="http://www.w3.org/1999/xlink">
    <title>地球-3</title>
    <g id="页面-1" stroke="none" stroke-width="1" fill="none" fill-rule="evenodd">
        <g id="gis地图/查看项目弹窗" transform="translate(-1179.000000, -18.000000)" fill-rule="nonzero">
            <g id="地球-3" transform="translate(1179.000000, 18.000000)">
                <rect id="矩形" fill="#000000" opacity="0" x="0" y="0" width="20" height="20"></rect>
                <path d="M10,3 C6.13400675,3 3,6.13400675 3,10 C3,13.8659932 6.13400675,17 10,17 C13.8659932,17 17,13.8659932 17,10 C17,6.13400675 13.8659932,3 10,3 Z M15.3474739,7.66705637 C15.6596242,8.38137788 15.8338205,9.17052193 15.8338205,10.0005845 C15.8338205,10.8306472 15.6596242,11.6197912 15.3474739,12.3341127 L12.7169937,12.3341127 C12.845595,11.6104384 12.9157411,10.8236326 12.9157411,10.0005845 C12.9157411,9.17753654 12.845595,8.39073069 12.7169937,7.66705637 L15.3474739,7.66705637 Z M8.25102296,10.0005845 C8.25102296,9.1623382 8.31532358,8.36968685 8.43223382,7.66705637 L11.5665971,7.66705637 C11.6835073,8.36968685 11.748977,9.1623382 11.748977,10.0005845 C11.748977,10.8388309 11.6835073,11.6314823 11.5665971,12.3341127 L8.43340292,12.3341127 C8.31649269,11.6314823 8.25102296,10.8388309 8.25102296,10.0005845 L8.25102296,10.0005845 Z M14.6670564,6.50029227 L12.445762,6.50029227 C12.1745303,5.58956158 11.8027557,4.84016702 11.3643424,4.32810021 C12.6843708,4.64601991 13.8522838,5.41415522 14.6670564,6.50029227 L14.6670564,6.50029227 Z M10,4.75131523 C10.5179123,4.75131523 10.9843841,5.42822546 11.3047182,6.50146137 L8.69528184,6.50146137 C9.01561586,5.42705637 9.48208768,4.75131523 10,4.75131523 Z M8.63565762,4.32926931 C8.19724426,4.84016702 7.82546973,5.59189979 7.5554071,6.50146137 L5.33411274,6.50146137 C6.1485914,5.41554954 7.31605576,4.64743737 8.63565762,4.32926931 L8.63565762,4.32926931 Z M4.65252609,7.66705637 L7.28300626,7.66705637 C7.154405,8.39073069 7.08425886,9.17753654 7.08425888,10.0005845 C7.08425889,10.8236326 7.15440502,11.6104384 7.28300626,12.3341127 L4.65252609,12.3341127 C4.33095211,11.5982183 4.16535534,10.8036722 4.16617649,10.0005845 C4.16617649,9.17052191 4.34037579,8.38137786 4.65252609,7.66705637 L4.65252609,7.66705637 Z M5.33294363,13.5008768 L7.554238,13.5008768 C7.82546973,14.4116075 8.19724426,15.1610021 8.63565762,15.6730689 C7.31562916,15.3551492 6.14771621,14.5870139 5.33294363,13.5008768 Z M10,15.2498539 C9.48208768,15.2498539 9.01561586,14.5729436 8.69528184,13.4997077 L11.3047182,13.4997077 C10.9820459,14.5741127 10.5179123,15.2498539 10,15.2498539 Z M11.3643424,15.6718998 C11.8027557,15.1610021 12.1745303,14.4092693 12.4445929,13.4997077 L14.6658873,13.4997077 C13.8514086,14.5856196 12.6839442,15.3537317 11.3643424,15.6718998 L11.3643424,15.6718998 Z" id="形状" fill="#61798B"></path>
            </g>
        </g>
    </g>
</svg>