<?xml version="1.0" encoding="UTF-8"?>
<svg width="20px" height="20px" viewBox="0 0 20 20" version="1.1" xmlns="http://www.w3.org/2000/svg" xmlns:xlink="http://www.w3.org/1999/xlink">
    <title>位置</title>
    <g id="页面-1" stroke="none" stroke-width="1" fill="none" fill-rule="evenodd">
        <g id="gis地图/查看项目弹窗" transform="translate(-1255.000000, -18.000000)" fill-rule="nonzero">
            <g id="位置" transform="translate(1255.000000, 18.000000)">
                <rect id="矩形" fill="#000000" opacity="0" x="0" y="0" width="20" height="20"></rect>
                <path d="M10.0007737,17 C9.86769826,17 9.74390716,16.9551183 9.6417795,16.8715454 C9.627853,16.8607119 8.2615087,15.7479549 6.86576402,14.2250719 C4.96402321,12.1481318 4,10.3900066 4,9.00022109 C4,8.19080256 4.15938104,7.40459872 4.47195358,6.66327659 C4.77524178,5.94671678 5.20696325,5.3059916 5.75783366,4.75657749 C6.30870406,4.20561574 6.94932302,3.77227504 7.66421663,3.47048419 C8.40232108,3.15785983 9.18839458,3 9.99922631,3 C10.8085106,3 11.5945841,3.15940747 12.3357834,3.47203184 C13.0522244,3.77537033 13.6928433,4.20716339 14.2421663,4.75812514 C14.7930368,5.30908689 15.2263056,5.94981207 15.5280464,6.66482423 C15.840619,7.40459872 16,8.19080256 16,9.00022109 C16,10.3915543 15.0359768,12.1496794 13.134236,14.2250719 C11.7400387,15.7464073 10.372147,16.8607119 10.3582205,16.8715454 C10.2576402,16.9566659 10.1338491,17 10.0007737,17 Z M10.0007737,4.13906699 C8.70251451,4.13906699 7.48162476,4.64514703 6.56402321,5.56444837 C5.64642166,6.48374972 5.13887814,7.70484192 5.13887814,9.00176874 C5.13887814,9.58058811 5.39729207,10.2971479 5.90483559,11.1328764 C6.33965184,11.8463409 6.94468085,12.6279018 7.70599613,13.4574398 C8.59419729,14.4278134 9.49323017,15.2418749 9.94970986,15.6396197 L10.0007737,15.6845014 L10.0518375,15.6396197 C10.6166344,15.1443732 11.4661509,14.3628123 12.306383,13.4450586 C13.0661509,12.613973 13.6696325,11.8339598 14.0998066,11.1251382 C14.6058027,10.292505 14.8611219,9.57749281 14.8611219,9.00022109 C14.8611219,7.70174663 14.3551257,6.48065443 13.4359768,5.56290073 C12.5199226,4.64514703 11.3005803,4.13906699 10.0007737,4.13906699 Z M10.0007737,11.6683617 C8.57562863,11.6683617 7.41508704,10.5076277 7.41508704,9.0822463 C7.41508704,7.65686491 8.57562863,6.49613089 10.0007737,6.49613089 C11.4259188,6.49613089 12.5864603,7.65686491 12.5864603,9.0822463 C12.5864603,10.5076277 11.4259188,11.6683617 10.0007737,11.6683617 Z M10.0007737,7.63519788 C9.20232108,7.63519788 8.55396518,8.28366129 8.55396518,9.0822463 C8.55396518,9.88083131 9.20232108,10.5292947 10.0007737,10.5292947 C10.7992263,10.5292947 11.4475822,9.88083131 11.4475822,9.0822463 C11.4475822,8.28366129 10.7992263,7.63519788 10.0007737,7.63519788 Z" id="形状" fill="#61798B"></path>
            </g>
        </g>
    </g>
</svg>