<?xml version="1.0" encoding="UTF-8"?>
<svg width="20px" height="20px" viewBox="0 0 20 20" version="1.1" xmlns="http://www.w3.org/2000/svg" xmlns:xlink="http://www.w3.org/1999/xlink">
    <title>右侧菜单</title>
    <g id="页面-1" stroke="none" stroke-width="1" fill="none" fill-rule="evenodd">
        <g id="gis地图/查看项目弹窗" transform="translate(-1396.000000, -122.000000)" fill="#000000" fill-rule="nonzero">
            <g id="编组-42" transform="translate(1087.000000, 64.000000)">
                <g id="右侧菜单" transform="translate(309.000000, 58.000000)">
                    <rect id="矩形" opacity="0" x="0" y="0" width="20" height="20"></rect>
                    <path d="M10.0234375,5.5 C10.771875,5.5 11.378125,4.940625 11.378125,4.2515625 C11.378125,3.5625 10.771875,3.003125 10.0234375,3.003125 C9.275,3.003125 8.66875,3.5625 8.66875,4.2515625 C8.66875,4.940625 9.275,5.5 10.0234375,5.5 Z M10.0234375,8.534375 C9.275,8.534375 8.66875,9.0921875 8.66875,9.78125 C8.66875,10.4703125 9.275,11.028125 10.0234375,11.028125 C10.771875,11.028125 11.378125,10.4703125 11.378125,9.78125 C11.378125,9.0921875 10.771875,8.534375 10.0234375,8.534375 L10.0234375,8.534375 Z M10.0234375,14.0640625 C9.275,14.0640625 8.66875,14.621875 8.66875,15.3109375 C8.66875,16 9.275,16.5578125 10.0234375,16.5578125 C10.771875,16.5578125 11.378125,16 11.378125,15.3109375 C11.378125,14.621875 10.771875,14.0640625 10.0234375,14.0640625 Z" id="形状" fill-opacity="0.7"></path>
                </g>
            </g>
        </g>
    </g>
</svg>