<?xml version="1.0" encoding="UTF-8"?>
<svg width="16px" height="16px" viewBox="0 0 16 16" version="1.1" xmlns="http://www.w3.org/2000/svg" xmlns:xlink="http://www.w3.org/1999/xlink">
    <title>404定位</title>
    <g id="页面-1" stroke="none" stroke-width="1" fill="none" fill-rule="evenodd">
        <g id="gis地图/查看项目弹窗" transform="translate(-326.000000, -180.000000)" fill-rule="nonzero">
            <g id="编组-22" transform="translate(318.000000, 104.000000)">
                <g id="404定位" transform="translate(8.000000, 76.000000)">
                    <rect id="矩形" fill="#000000" opacity="0" x="0" y="0" width="16" height="16"></rect>
                    <path d="M15,7.5 L13.975,7.5 C13.7375,4.5875 11.4125,2.2625 8.5,2.025 L8.5,1 L7.5,1 L7.5,2.025 C4.5875,2.2625 2.2625,4.5875 2.025,7.5 L1,7.5 L1,8.5 L2.025,8.5 C2.2625,11.4125 4.5875,13.7375 7.5,13.975 L7.5,15 L8.5,15 L8.5,13.975 C11.4125,13.7375 13.7375,11.4125 13.975,8.5 L15,8.5 L15,7.5 Z M8,13 C5.2375,13 3,10.7625 3,8 C3,5.2375 5.2375,3 8,3 C10.7625,3 13,5.2375 13,8 C13,10.7625 10.7625,13 8,13 Z M10,8 C10,9.1 9.1,10 8,10 C6.9,10 6,9.1 6,8 C6,6.9 6.9,6 8,6 C9.1,6 10,6.9 10,8 Z" id="形状" fill="#FFFFFF"></path>
                </g>
            </g>
        </g>
    </g>
</svg>