<?xml version="1.0" encoding="UTF-8"?>
<svg width="20px" height="20px" viewBox="0 0 20 20" version="1.1" xmlns="http://www.w3.org/2000/svg" xmlns:xlink="http://www.w3.org/1999/xlink">
    <title>切片</title>
    <g id="页面-1" stroke="none" stroke-width="1" fill="none" fill-rule="evenodd">
        <g id="gis地图/查看项目弹窗" transform="translate(-24.000000, -232.000000)" fill-rule="nonzero">
            <g id="icon/biaoqian" transform="translate(24.000000, 232.000000)">
                <rect id="矩形" fill="#000000" opacity="0" x="0" y="0" width="20" height="20"></rect>
                <path d="M14.9701987,11.1070111 C14.9701987,10.8302583 14.8763797,10.5922509 14.683223,10.3819188 L9.03200882,4.72509226 C8.83333333,4.52583026 8.55739513,4.35424355 8.2262693,4.21033211 C7.88410594,4.06642066 7.58057394,4 7.30463575,4 L4.01545253,4 C3.73951434,4 3.5022075,4.10516606 3.303532,4.30442805 C3.10485651,4.50369005 3,4.74169742 3,5.01845019 L3,8.30627307 C3,8.58302584 3.06622517,8.898524 3.20971303,9.23062732 C3.35320089,9.57380076 3.51324503,9.83948341 3.72295806,10.0387454 L9.37417219,15.7066421 C9.57284768,15.9059041 9.81015452,15.994465 10.0860927,15.994465 C10.3620309,15.994465 10.5993377,15.900369 10.8090508,15.7066421 L14.683223,11.8210332 C14.8653422,11.6217712 14.9701987,11.3837638 14.9701987,11.1070111 L14.9701987,11.1070111 L14.9701987,11.1070111 Z M6.23951435,7.26014761 C6.04083886,7.4594096 5.80353202,7.55350555 5.52759382,7.55350555 C5.25165563,7.55350555 5.01434879,7.4594096 4.81567329,7.26014761 C4.6169978,7.06088562 4.52317881,6.82287824 4.52317881,6.54612547 C4.52317881,6.2693727 4.6169978,6.03136532 4.81567329,5.83210333 C5.01434879,5.63284134 5.25165563,5.53874539 5.52759382,5.53874539 C5.80353202,5.53874539 6.04083886,5.63284134 6.23951435,5.83210333 C6.43818985,6.03136532 6.52649007,6.2693727 6.52649007,6.54612547 C6.54304636,6.82841329 6.43818985,7.06088562 6.23951435,7.26014761 L6.23951435,7.26014761 L6.23951435,7.26014761 Z M17.7130243,10.3763838 L12.0618101,4.72509226 C11.8631347,4.52583026 11.5871965,4.35424355 11.2560706,4.21033211 C10.9139073,4.06642068 10.6103753,4.00000002 10.3344371,4.00000002 L8.55739515,4.00000002 C8.83333334,4.00000002 9.14790288,4.06642068 9.47902871,4.21033212 C9.82119207,4.35424357 10.0860927,4.51476016 10.2847682,4.72509227 L15.9359824,10.3763838 C16.1346578,10.5867159 16.2284768,10.8247233 16.2284768,11.101476 C16.2284768,11.3782288 16.1346578,11.6162362 15.9359824,11.8154982 L12.2328918,15.5405904 C12.392936,15.701107 12.5364238,15.8173432 12.6523179,15.894834 C12.7682119,15.9723247 12.9282561,16 13.115894,16 C13.3918322,16 13.6291391,15.9059041 13.8388521,15.7066421 L17.7130243,11.8099631 C17.9116998,11.6107011 18,11.3726937 18,11.095941 C18,10.8191882 17.906181,10.5922509 17.7130243,10.3763838 L17.7130243,10.3763838 L17.7130243,10.3763838 Z" id="形状" fill="#61798B"></path>
            </g>
        </g>
    </g>
</svg>