<?xml version="1.0" encoding="UTF-8"?>
<svg width="20px" height="20px" viewBox="0 0 20 20" version="1.1" xmlns="http://www.w3.org/2000/svg" xmlns:xlink="http://www.w3.org/1999/xlink">
    <title>切片</title>
    <g id="页面-1" stroke="none" stroke-width="1" fill="none" fill-rule="evenodd">
        <g id="gis地图/查看项目弹窗" transform="translate(-24.000000, -180.000000)" fill-rule="nonzero">
            <g id="icon/yicundang" transform="translate(24.000000, 180.000000)">
                <rect id="矩形" fill="#000000" opacity="0" x="0" y="0" width="20" height="20"></rect>
                <path d="M15.3333333,4 L16.6666667,6.66666667 L16.6666667,15.3333333 C16.6666667,15.7333333 16.4,16 16,16 L16,16 L4,16 C3.6,16 3.33333333,15.7333333 3.33333333,15.3333333 L3.33333333,15.3333333 L3.33333333,6.66666667 L4.66666667,4 L15.3333333,4 Z M10.6666667,8.66666667 L9.33333333,8.66666667 L9.33333333,11.3333333 L7.33333333,11.3333333 L10,14 L12.6666667,11.3333333 L10.6666667,11.3333333 L10.6666667,8.66666667 Z M14.4666667,5.33333333 L5.46666667,5.33333333 L4.8,6.66666667 L15.1333333,6.66666667 L14.4666667,5.33333333 Z" id="形状结合" fill="#61798B"></path>
            </g>
        </g>
    </g>
</svg>