<?xml version="1.0" encoding="UTF-8"?>
<svg width="20px" height="20px" viewBox="0 0 20 20" version="1.1" xmlns="http://www.w3.org/2000/svg" xmlns:xlink="http://www.w3.org/1999/xlink">
    <title>标签</title>
    <g id="页面-1" stroke="none" stroke-width="1" fill="none" fill-rule="evenodd">
        <g id="gis地图/查看项目弹窗" transform="translate(-48.000000, -284.000000)" fill-rule="nonzero">
            <g id="编组-11" transform="translate(24.000000, 276.000000)">
                <g id="标签" transform="translate(24.000000, 8.000000)">
                    <rect id="矩形" fill="#000000" opacity="0" x="0" y="0" width="20" height="20"></rect>
                    <path d="M14.90625,3 C15.5103114,3 16,3.48968855 16,4.09375 L16,4.09375 L16,16.3998438 C15.9992188,16.4045313 15.9995313,16.4079688 15.9992188,16.4135938 C15.9989062,16.4192188 15.9979688,16.4248438 15.9979688,16.4303125 L15.9979688,16.4303125 L15.9965625,16.4459375 L15.9946875,16.4603125 C15.9939063,16.46625 15.9929687,16.4720313 15.9920313,16.4778125 L15.9920313,16.4778125 L15.9881641,16.4992773 L15.9881641,16.4992773 L15.9859375,16.5095313 C15.9854688,16.5120313 15.984375,16.514375 15.984375,16.516875 C15.9823438,16.5254688 15.9804688,16.5329688 15.978125,16.5410938 L15.978125,16.5410938 C15.9745313,16.55375 15.971875,16.5629688 15.96875,16.5720313 C15.948693,16.6313739 15.9198288,16.6873641 15.883125,16.738125 L15.883125,16.738125 C15.8770313,16.7465625 15.8715625,16.75375 15.8657813,16.7609375 L15.8657813,16.7609375 C15.8578125,16.7710938 15.8529688,16.7767188 15.8479688,16.7823438 L15.8479688,16.7823438 L15.8350586,16.7968555 L15.8350586,16.7968555 L15.8247461,16.8077344 L15.8247461,16.8077344 L15.8201563,16.8125 L15.809375,16.823125 L15.809375,16.823125 L15.7979688,16.83375 L15.7979688,16.83375 L15.7871875,16.8432813 L15.7871875,16.8432813 L15.7753125,16.8535938 C15.7709375,16.8573438 15.76625,16.8607813 15.7617188,16.864375 L15.7617188,16.864375 L15.7520312,16.8720313 C15.7451562,16.8776563 15.738125,16.8826563 15.7309375,16.8876563 L15.7309375,16.8876563 C15.6457218,16.9459927 15.5507281,16.9816421 15.4514062,16.9934375 L15.4514062,16.9934375 C15.44125,16.994375 15.4332812,16.995625 15.425625,16.995625 L15.425625,16.995625 L15.4157812,16.995625 C15.41,16.9964063 15.4040625,16.9964063 15.398125,16.9964063 L15.3371875,16.9964063 L15.3192187,16.995 L15.3192187,16.995 L15.3057812,16.9935938 L15.2735937,16.989375 L15.2595313,16.9867188 L15.2420313,16.9832813 L15.2309375,16.9807813 C15.2242188,16.9792188 15.2175,16.9775 15.2109375,16.975625 L15.2109375,16.975625 C15.1957812,16.97125 15.1876562,16.9689063 15.1801562,16.9664063 L15.1801562,16.9664063 L15.1623633,16.960332 L15.1623633,16.960332 L15.15,16.955625 C15.1378125,16.9509375 15.1290625,16.9471875 15.1203125,16.9432813 L15.1203125,16.9432813 C15.109375,16.9392188 15.1004687,16.9348438 15.0915625,16.9303125 L15.0915625,16.9303125 C15.08125,16.9257813 15.0725,16.9210938 15.0639062,16.9160938 L15.0639062,16.9160938 L15.0625,16.9160938 L9.9815625,13.9828125 L5.058125,16.8253125 C4.87753477,16.9989046 4.61074574,17.0479047 4.38025655,16.9498141 C4.14976735,16.8517235 4,16.6254936 4,16.375 L4,16.375 L4,4.09375 C4,3.48968855 4.48968855,3 5.09375,3 L5.09375,3 Z M14.125,4.25 L5.875,4.25 C5.52982203,4.25 5.25,4.52982203 5.25,4.875 L5.25,4.875 L5.25,15.27125 L8.7315625,13.26125 L9.9815625,12.5395313 L11.2315625,13.26125 L14.75,15.2925 L14.75,4.875 C14.75,4.52982203 14.470178,4.25 14.125,4.25 L14.125,4.25 Z M12.375,6 C12.720178,6 13,6.27982203 13,6.625 C13,6.97017797 12.720178,7.25 12.375,7.25 L12.375,7.25 L7.625,7.25 C7.27982203,7.25 7,6.97017797 7,6.625 C7,6.27982203 7.27982203,6 7.625,6 L7.625,6 Z" id="形状结合" fill="#61798B"></path>
                </g>
            </g>
        </g>
    </g>
</svg>