<?xml version="1.0" encoding="UTF-8"?>
<svg width="20px" height="20px" viewBox="0 0 20 20" version="1.1" xmlns="http://www.w3.org/2000/svg" xmlns:xlink="http://www.w3.org/1999/xlink">
    <title>切片</title>
    <defs>
        <rect id="path-1" x="0" y="0" width="20" height="20"></rect>
    </defs>
    <g id="页面-1" stroke="none" stroke-width="1" fill="none" fill-rule="evenodd">
        <g id="gis地图/查看项目弹窗" transform="translate(-24.000000, -92.000000)">
            <g id="icon/suoyou" transform="translate(24.000000, 92.000000)">
                <mask id="mask-2" fill="white">
                    <use xlink:href="#path-1"></use>
                </mask>
                <g id="蒙版"></g>
                <path d="M3.81364209,12.476945 L3.90198144,12.5094062 L9.8236365,15.1856637 L16.1105685,12.5038898 C16.4037453,12.3788256 16.740042,12.4880801 16.9037106,12.7476072 L16.9474166,12.8298895 C17.0744021,13.1186307 16.9634692,13.4498396 16.6999553,13.611032 L16.616409,13.6540767 L10.0681226,16.4474651 C9.93551332,16.504034 9.78837393,16.5140643 9.65076667,16.477812 L9.54972447,16.4419488 L3.37102564,13.6485604 C3.05162458,13.5041592 2.91155737,13.1320906 3.05817676,12.8175219 C3.19146712,12.5315503 3.51580279,12.3915462 3.81364209,12.476945 Z M3.81364209,9.79099458 L3.90198144,9.82345575 L9.8236365,12.4997133 L16.1105685,9.81793943 C16.4037453,9.69287517 16.740042,9.80212968 16.9037106,10.0616568 L16.9474166,10.1439391 C17.0744021,10.4326803 16.9634692,10.7638892 16.6999553,10.9250816 L16.616409,10.9681263 L10.0681226,13.7615147 C9.93551332,13.8180836 9.78837393,13.8281139 9.65076667,13.7918616 L9.54972447,13.7559984 L3.37102564,10.96261 C3.05162458,10.8182088 2.91155737,10.4461402 3.05817676,10.1315715 C3.19146712,9.84559986 3.51580279,9.70559574 3.81364209,9.79099458 Z M9.71541211,3.56525826 C9.89456192,3.47703856 10.1054304,3.47703856 10.2845802,3.56525826 L10.2845802,3.56525826 L16.6480728,6.69886707 C17.1170931,6.92982925 17.1170931,7.58901886 16.6480728,7.81998104 L16.6480728,7.81998104 L10.2845802,10.9535899 C10.1054304,11.0418096 9.89456192,11.0418096 9.71541211,10.9535899 L9.71541211,10.9535899 L3.3519195,7.81998104 C2.88289921,7.58901886 2.88289921,6.92982925 3.3519195,6.69886707 L3.3519195,6.69886707 Z" id="形状结合" fill="#61798B" fill-rule="nonzero" mask="url(#mask-2)"></path>
            </g>
        </g>
    </g>
</svg>