<?xml version="1.0" encoding="UTF-8"?>
<svg width="20px" height="20px" viewBox="0 0 20 20" version="1.1" xmlns="http://www.w3.org/2000/svg" xmlns:xlink="http://www.w3.org/1999/xlink">
    <title>用户</title>
    <g id="页面-1" stroke="none" stroke-width="1" fill="none" fill-rule="evenodd">
        <g id="gis地图/查看项目弹窗" transform="translate(-1340.000000, -18.000000)" fill-rule="nonzero">
            <g id="用户" transform="translate(1340.000000, 18.000000)">
                <rect id="矩形" fill="#000000" opacity="0" x="0" y="0" width="20" height="20"></rect>
                <path d="M12.4731628,10.4286043 C13.5035114,9.67914991 14.1719338,8.47294658 14.1719338,7.11556577 C14.1719338,4.84629523 12.3003511,3 10,3 C7.69964886,3 5.82806622,4.84629523 5.82806622,7.11556577 C5.82806622,8.47294658 6.49811889,9.67914991 7.52683722,10.4286043 C5.16616504,11.3903504 3.5016303,13.6853532 3.5016303,16.3566916 C3.5016303,16.7121195 3.79345372,17 4.15374969,17 C4.51404565,17 4.80586907,16.7121195 4.80586907,16.3566916 C4.80586907,13.5293509 7.13719589,11.2311315 10.0016303,11.2311315 C12.8660647,11.2311315 15.1973915,13.5309592 15.1973915,16.3566916 C15.1973915,16.7121195 15.4892149,17 15.8495109,17 C16.2098069,17 16.5016303,16.7121195 16.5016303,16.3566916 C16.5,13.6853532 14.833835,11.3903504 12.4731628,10.4286043 Z M7.13067469,7.11556577 C7.13067469,5.55393452 8.41861048,4.28500862 10,4.28500862 C11.5813895,4.28500862 12.8693253,5.55554279 12.8693253,7.11556577 C12.8693253,8.67558874 11.5813895,9.94612292 10,9.94612292 C8.41861048,9.94612292 7.13067469,8.67558874 7.13067469,7.11556577 Z" id="形状" fill="#61798B"></path>
            </g>
        </g>
    </g>
</svg>