<?xml version="1.0" encoding="UTF-8"?>
<svg width="16px" height="16px" viewBox="0 0 16 16" version="1.1" xmlns="http://www.w3.org/2000/svg" xmlns:xlink="http://www.w3.org/1999/xlink">
    <title>zoom in</title>
    <g id="页面-1" stroke="none" stroke-width="1" fill="none" fill-rule="evenodd">
        <g id="gis地图/查看项目弹窗" transform="translate(-326.000000, -116.000000)" fill-rule="nonzero">
            <g id="编组-22" transform="translate(318.000000, 104.000000)">
                <g id="zoom-in" transform="translate(8.000000, 12.000000)">
                    <rect id="矩形" fill="#000000" opacity="0" x="0" y="0" width="16" height="16"></rect>
                    <path d="M9.953125,6.921875 L8.109375,6.921875 L8.109375,4.828125 C8.109375,4.759375 8.053125,4.703125 7.984375,4.703125 L7.046875,4.703125 C6.978125,4.703125 6.921875,4.759375 6.921875,4.828125 L6.921875,6.921875 L5.078125,6.921875 C5.009375,6.921875 4.953125,6.978125 4.953125,7.046875 L4.953125,7.984375 C4.953125,8.053125 5.009375,8.109375 5.078125,8.109375 L6.921875,8.109375 L6.921875,10.203125 C6.921875,10.271875 6.978125,10.328125 7.046875,10.328125 L7.984375,10.328125 C8.053125,10.328125 8.109375,10.271875 8.109375,10.203125 L8.109375,8.109375 L9.953125,8.109375 C10.021875,8.109375 10.078125,8.053125 10.078125,7.984375 L10.078125,7.046875 C10.078125,6.978125 10.021875,6.921875 9.953125,6.921875 Z M14.390625,13.546875 L12.109375,11.265625 C14.0171875,8.9390625 13.884375,5.4921875 11.703125,3.3125 C9.390625,0.9984375 5.634375,0.9984375 3.3125,3.3125 C0.9984375,5.634375 0.9984375,9.390625 3.3125,11.703125 C5.4921875,13.884375 8.9390625,14.0171875 11.265625,12.109375 L13.546875,14.390625 C13.596875,14.434375 13.6765625,14.434375 13.71875,14.390625 L14.390625,13.71875 C14.434375,13.6765625 14.434375,13.596875 14.390625,13.546875 Z M10.875,10.875 C9.01875,12.7296875 6.0125,12.7296875 4.15625,10.875 C2.3015625,9.01875 2.3015625,6.0125 4.15625,4.15625 C6.0125,2.3015625 9.01875,2.3015625 10.875,4.15625 C12.7296875,6.0125 12.7296875,9.01875 10.875,10.875 Z" id="形状" fill="#FFFFFF"></path>
                </g>
            </g>
        </g>
    </g>
</svg>